<?xml version="1.0" standalone="no"?><!DOCTYPE svg PUBLIC "-//W3C//DTD SVG 1.1//EN" "http://www.w3.org/Graphics/SVG/1.1/DTD/svg11.dtd"><svg t="1765957128329" class="icon" viewBox="0 0 1024 1024" version="1.1" xmlns="http://www.w3.org/2000/svg" p-id="6322" xmlns:xlink="http://www.w3.org/1999/xlink" width="200" height="200"><path d="M774.807164 779.37185a16.409823 16.409823 0 0 0-1.109988-6.099934 22.779754 22.779754 0 0 0-5.309943-8.999903 33.069643 33.069643 0 0 0-16.769819-8.539908q-9.539897-1.629982-19.149793-2.459974c-4.799948-0.409996-9.659896-0.349996-14.479844-0.389995h-3.739959c-10.399888 0-20.929774 0.449995-31.159664 2.349974-10.659885 1.999978-21.209771 4.209955-31.749658 6.739928-5.199944 1.249987-10.289889 2.999968-15.399833 4.58995-4.789948 1.459984-9.459898 3.219965-14.169848 4.889947-10.349888 3.659961-20.619777 7.789916-30.599669 12.369867s-19.869786 8.999903-29.239685 14.519843A224.747575 224.747575 0 0 0 533.249771 818.991422c-2.619972 2.149977-5.109945 4.439952-7.609918 6.709928 1.799981-12.07987 3.579961-24.159739 5.50994-36.219609 3.369964-20.999773 7.099923-41.929548 10.429888-62.919321q0.489995-3.639961 0.999989-7.279922a27.199706 27.199706 0 0 0-3.72996-13.799851 27.499703 27.499703 0 0 0-16.339823-12.559864 26.929709 26.929709 0 0 0-7.229922-0.99999 27.509703 27.509703 0 0 0-13.849851 3.72996l-5.54994 4.339953a27.259706 27.259706 0 0 0-6.999925 12.05987c-3.559962 22.089762-7.649917 44.079524-12.069869 65.999288-4.249954 20.999773-7.699917 42.189545-11.16988 63.329317-0.499995 2.999968-0.779992 6.119934-1.229986 9.169901-2.919968-3.159966-5.839937-6.319932-8.789906-9.439898-3.529962-3.73996-7.089923-7.41992-10.749884-10.999882-4.069956-3.999957-8.269911-7.799916-12.529864-11.609874a255.547242 255.547242 0 0 0-29.099686-22.139762A174.128121 174.128121 0 0 0 385.581364 785.991778c-3.659961-1.85998-7.41992-3.479962-11.199879-5.069945-3.329964-1.379985-6.699928-2.81997-10.129891-3.939957a212.647705 212.647705 0 0 0-22.159761-6.289933c-8.999903-1.86998-18.299803-2.699971-27.449703-3.819958-4.909947-0.589994-9.839894-0.94999-14.769841-1.399985-9.949893-0.90999-19.999784-1.679982-29.949677-1.819981h-1.129988c-10.469887 0-20.999773 2.069978-31.239662 4.109956-2.419974 0.479995-4.849948 0.92999-7.219923 1.609983a25.649723 25.649723 0 0 0-11.09988 6.43993 19.259792 19.259792 0 0 0-4.509951 7.719917c-1.169987 3.619961-0.999989 6.699928-0.379996 10.359888 0.999989 5.709938 4.949947 10.389888 8.999903 14.309846 1.789981 1.749981 3.67996 3.349964 5.619939 4.919947 8.479908 6.919925 17.779808 12.649863 27.079708 18.369801 8.589907 5.289943 16.789819 11.199879 25.109729 16.909818A229.997518 229.997518 0 0 0 306.322219 863.990937a301.996741 301.996741 0 0 0 29.999677 13.169858 107.098844 107.098844 0 0 0 13.219857 4.249954c2.499973 0.589994 4.999946 1.349985 7.529919 1.77998l9.409898 1.619983c5.999935 0.999989 12.129869 1.669982 18.189804 2.389974 4.62995 0.539994 9.2799 0.94999 13.91985 1.349986 10.459887 0.91999 20.899774 1.399985 31.399661 1.459984a115.408755 115.408755 0 0 0 14.269846-0.839991c5.359942-0.619993 11.12988-1.579983 16.099826-3.999957-0.659993 7.659917-1.359985 15.319835-1.739981 22.999752-0.999989 20.999773-0.89999 41.999547-1.079988 62.99932a137.428517 137.428517 0 0 0 0.499994 16.109826c0.339996 3.199965 0.389996 6.999924 1.289986 9.809894 0.419995 1.299986 0.829991 2.599972 1.239987 3.889958 1.559983 4.929947 3.809959 8.109912 6.399931 12.239868a22.26976 22.26976 0 0 0 12.99986 9.999892 21.689766 21.689766 0 0 0 21.099772-5.569939 27.339705 27.339705 0 0 0 4.479952-4.579951c2.499973-3.199965 3.829959-4.429952 5.139944-7.44992s3.159966-5.999935 3.789959-9.2499a162.268249 162.268249 0 0 0 2.879969-21.859764c0.589994-9.999892 0.749992-20.079783 0.809991-30.139675q0.089999-14.209847 0.329997-28.379693c3.299964 0 6.589929-0.059999 9.889893-0.229998 21.609767-1.149988 43.279533-3.529962 64.669302-6.699928 4.709949-0.699992 9.489898-1.219987 14.159847-2.159976l18.669799-3.71996c5.149944-0.999989 10.22989-2.539973 15.309835-3.809959s9.839894-2.669971 14.759841-3.999957c4.679949-1.299986 9.2899-2.81997 13.929849-4.279954 2.429974-0.749992 4.809948-1.919979 7.179923-2.869969 3.769959-1.509984 7.36992-3.259965 10.999881-4.999946 4.369953-2.089977 8.679906-4.319953 12.93986-6.629928 2.999968-1.599983 5.919936-3.179966 8.819905-4.889948a92.169005 92.169005 0 0 0 14.83984-11.329877c7.569918-6.859926 13.999849-14.999838 20.319781-22.949753 6.999924-8.739906 12.749862-18.359802 18.749797-27.7897a102.348896 102.348896 0 0 0 9.159902-17.119815 34.679626 34.679626 0 0 0 2.099977-11.599875c-0.059999-0.509994-0.119999-1.029989-0.189998-1.539983z m-529.994281 5.159944z" fill="#0BA488" p-id="6323"></path><path d="M526.499844 2.590232a75.779182 75.779182 0 0 0-15.81983 7.599918 74.709194 74.709194 0 0 0-11.739873 9.329899c-6.879926 6.709928-10.21989 15.309835-13.559854 24.079741-1.999978 5.169944-2.649971 10.21989-3.339964 15.809829s0.419995 11.289878 1.259987 16.819818A89.999029 89.999029 0 0 0 485.730283 87.99931c1.679982 5.669939 4.209955 11.07988 6.319932 16.589821 1.84998 4.829948 3.74996 9.629896 5.409942 14.529844q5.419942 16.129826 10.799883 32.269651c1.719981 5.149944 3.999957 10.17989 5.999936 15.229836 2.619972 6.589929 5.509941 12.99986 8.549907 19.41979 5.999935 12.729863 12.199868 25.359726 17.999806 38.199588q9.479898 23.19975 19.269792 46.309501c2.999968 7.059924 6.059935 13.999849 9.359899 20.949773 3.889958 8.179912 7.739916 15.649831 14.159847 22.379759a42.379543 42.379543 0 0 0 19.999785 11.15988c6.779927 1.369985 13.809851 1.919979 20.589777-0.139999a73.759204 73.759204 0 0 0 11.329878-4.709949c3.089967-1.539983 8.29991-6.189933 9.709895-7.279922 1.199987-0.92999 2.349975-1.87998 3.489963-2.879969 1.769981-1.559983 3.449963-3.249965 5.099945-4.939946q5.999935-6.099934 11.859872-12.279868c6.739927-6.999924 12.789862-15.049838 18.769797-22.709755 8.999903-11.519876 17.859807-23.059751 26.529714-34.789624 12.309867-16.619821 23.479747-33.999633 34.109632-51.729442 2.489973-4.149955 4.869947-8.35991 7.249922-12.589864 1.269986-2.279975 2.559972-4.559951 3.829958-6.839926a257.817218 257.817218 0 0 0 12.519865-26.789711c6.769927-16.169826 10.099891-32.999644 11.379877-50.489455 0.259997-3.459963 0.259997-6.909925 0.289997-10.379888 0.069999-5.55994-0.999989-11.869872-1.87998-17.119816-0.93999-5.999935-3.579961-11.809873-6.47993-17.129815-7.999914-14.78984-24.719733-23.589745-41.319554-23.239749-12.569864 0.259997-24.889731 4.999946-34.929623 12.429866A169.178174 169.178174 0 0 0 674.108251 49.99972c-2.229976 2.299975-4.329953 4.709949-6.47993 7.069924-7.069924 7.789916-13.559854 16.059827-19.999785 24.339738q-7.869915 10.049892-15.539832 20.239781-0.999989-2.619972-2.089977-5.259943c-2.489973-6.259932-5.349942-12.179869-8.319911-18.209804-2.279975-4.63995-4.359953-9.439898-6.879925-13.999849-2.629972-4.739949-5.109945-9.609896-7.899915-14.259846l-4.65995-7.719916A153.81834 153.81834 0 0 0 589.999158 24.99999a68.999255 68.999255 0 0 0-9.059902-8.869904c-2.76997-2.379974-5.939936-4.59995-8.899904-6.829926-4.289954-3.229965-9.599896-5.069945-14.649842-6.739928C552.549562 1.000249 546.999622 0.590254 542.089675 0.110259a22.639756 22.639756 0 0 0-2.339974-0.109999 40.889559 40.889559 0 0 0-13.249857 2.589972z m36.9996 275.997022c-1.129988-2.669971-2.249976-5.329942-3.369963-7.999914a0.469995 0.469995 0 0 1 0-0.099999l3.419963 8.099913zM470.480448 324.33676c-8.999903 1.519984-17.309813 7.139923-23.999741 12.99986-2.229976 1.999978-6.059935 7.43992-6.799927 8.559907a33.869635 33.869635 0 0 0-2.139977 3.799959 118.728719 118.728719 0 0 0-5.799937 14.769841c-3.69996 11.349878-2.859969 23.589745 0.189998 34.999622 1.439984 5.399942 2.919968 10.799883 4.399953 16.199826 2.579972 9.439898 4.369953 19.119794 7.109923 28.519692 2.849969 9.799894 5.809937 19.529789 9.2899 29.139685 3.68996 10.15989 7.249922 20.319781 10.329888 30.699669 2.78997 9.379899 4.64995 19.049794 6.839926 28.599691 2.689971 11.689874 6.919925 22.769754 11.069881 33.999634 1.88998 5.129945 3.479962 10.339888 4.949946 15.589831a73.329209 73.329209 0 0 0 2.719971 8.309911c4.789948 11.829872 5.259943 13.429855 13.449855 23.189749 3.229965 3.849958 7.489919 6.669928 11.709874 9.369899 10.329889 6.599929 24.369737 7.839915 35.999611 4.459952a45.109513 45.109513 0 0 0 19.999784-11.639874 47.27949 47.27949 0 0 0 4.889948-5.769938c4.379953-3.519962 8.419909-7.529919 12.419865-11.379877l10.859883-10.499887c7.309921-7.089923 14.85984-13.92985 22.359759-20.819775a399.935684 399.935684 0 0 0 42.999536-45.779506c2.899969-3.659961 5.769938-7.359921 8.669906-10.999881 6.869926-8.709906 14.069848-17.259814 19.999785-26.659713a135.128542 135.128542 0 0 0 11.719873-24.829732 87.699054 87.699054 0 0 0 5.239944-28.559692c0.169998-10.429887-3.74996-21.169772-9.529898-29.759679a85.899073 85.899073 0 0 0-6.999924-8.909903c-2.369974-2.649971-5.56994-4.519951-8.449909-6.599929a17.869807 17.869807 0 0 0-3.059967-1.609983 76.769172 76.769172 0 0 0-10.999881-4.359953 73.20921 73.20921 0 0 0-23.579746-2.509973 80.999126 80.999126 0 0 0-16.879817 2.679971 74.649194 74.649194 0 0 0-14.089848 5.999936c-4.499951 2.309975-8.529908 5.489941-12.559865 8.519908-8.32991 6.279932-16.419823 12.849861-24.339737 19.629788a123.608666 123.608666 0 0 0-4.68995-15.589832 103.378884 103.378884 0 0 0-6.43993-14.899839 74.839192 74.839192 0 0 0-6.849926-9.999892c-7.869915-10.269889-15.909828-20.099783-25.279727-28.999687-4.819948-4.59995-9.999892-8.999903-15.999828-11.919872a120.4287 120.4287 0 0 0-18.699798-7.169922 73.16921 73.16921 0 0 0-15.579832-2.279976c-0.519994 0-1.059989-0.049999-1.579983-0.049999-4.249954 0-8.699906 0.91999-12.719863 1.599983z" fill="#F3B36A" p-id="6324"></path><path d="M412.001079 424.925675a58.519369 58.519369 0 0 0-9.889893 1.129987c-5.329942 0.91999-10.739884 4.909947-14.349845 8.089913a39.229577 39.229577 0 0 0-7.759917 9.909893 45.489509 45.489509 0 0 0-5.289943 13.619853 65.209296 65.209296 0 0 0 0.479995 27.8597c1.259986 5.169944 2.999968 10.15989 4.65995 14.999838 0.569994 1.649982 1.129988 3.289964 1.689982 4.939946 0.999989 2.999968 1.999978 5.999935 3.129966 8.999903 2.889969 7.869915 6.269932 17.239814 9.439898 26.999709l3.109967 9.519897c5.479941 16.879818 11.169879 34.32963 16.66982 51.519444 1.84998 5.809937 3.659961 11.629875 5.469941 17.439812 4.069956 13.139858 8.289911 26.729712 13.069859 39.89957 3.66996 10.129891 7.469919 20.599778 10.889882 31.099664 1.609983 4.939947 3.119966 9.999892 4.589951 14.869839 1.319986 4.419952 2.699971 8.999903 4.129955 13.459855a288.996881 288.996881 0 0 0 12.889861 32.999644c1.719981 3.71996 3.639961 7.719917 6.049935 12.609864 3.199965 6.46993 7.079924 13.829851 12.709862 19.339791a37.219598 37.219598 0 0 0 25.929721 10.349889h0.999989c7.699917-0.189998 15.939828-3.089967 23.19975-8.149912 5.919936-4.129955 11.559875-8.619907 16.379823-12.509865 7.209922-5.809937 14.719841-12.279867 22.939752-19.799787 14.139847-12.919861 28.839689-27.219706 46.249501-44.999514 14.83984-15.129837 29.339683-29.999676 43.359532-44.909516 6.579929-6.999924 12.749862-14.669842 18.719798-22.069761l0.509995-0.629994c8.32991-10.309889 16.349824-20.999773 23.779743-30.939666 2.169977-2.919968 4.219954-5.999935 6.189933-8.999903 0.88999-1.349985 1.779981-2.699971 2.669972-3.999956 2.269976-3.359964 4.479952-6.829926 6.619928-10.179891l1.739981-2.70997 0.759992-1.189987c1.999978-3.179966 4.149955-6.45993 5.999935-9.809895a96.38896 96.38896 0 0 0 9.659896-24.99973 213.997691 213.997691 0 0 0 3.599961-22.529757l0.519995-4.059956a91.249015 91.249015 0 0 0 0.739992-14.439844 57.119384 57.119384 0 0 0-1.999979-12.99986 33.289641 33.289641 0 0 0-3.63996-8.199911c-2.80997-4.63995-5.189944-6.46993-9.159902-9.479898l-0.769991-0.589994c-3.579961-2.729971-7.999914-4.259954-12.239868-5.739938l-0.499995-0.169998c-5.269943-1.83998-10.929882-2.479973-16.259824-2.899969-0.629993-0.059999-1.269986-0.079999-1.91998-0.079999a59.169362 59.169362 0 0 0-10.14989 1.189987c-0.769992 0.119999-1.509984 0.259997-2.249976 0.379996a60.439348 60.439348 0 0 0-9.459898 2.519973 134.298551 134.298551 0 0 0-23.609745 10.719884c-7.999914 4.559951-15.459833 9.999892-23.639745 16.109827-15.78983 11.819872-31.999655 25.599724-51.129448 43.369532-7.469919 6.999924-15.099837 14.389845-22.659756 22.079761l-11.489876 11.669874a113.368777 113.368777 0 0 0-8.169911 9.519898c-0.179998-1.549983-0.379996-3.119966-0.559994-4.67995-0.749992-6.309932-1.769981-12.99986-2.999968-19.909785-0.239997-1.319986-0.459995-2.659971-0.689993-3.999957a79.999137 79.999137 0 0 0-2.479973-11.579875c-3.999957-12.489865-9.119902-24.349737-14.419844-36.409607-2.059978-4.739949-4.509951-9.339899-6.819927-13.659853-5.439941-10.119891-12.769862-18.999795-20.419779-27.879699-7.859915-9.139901-17.709809-16.749819-26.309716-22.999752-4.549951-3.299964-8.779905-6.149934-12.949861-8.719905a73.20921 73.20921 0 0 0-31.419661-9.999893l-0.999989-0.119998a25.579724 25.579724 0 0 0-3.119966-0.179998z" fill="#F1638C" p-id="6325"></path><path d="M495.640177 128.83887c-1.409985 0-2.79997 0-4.199955 0.069999a111.998791 111.998791 0 0 0-11.299878 1.079988 55.719399 55.719399 0 0 0-17.229814 5.479941 50.109459 50.109459 0 0 0-9.999892 6.999925 30.719669 30.719669 0 0 0-4.509952 5.52994 29.189685 29.189685 0 0 0-1.78998 3.329964 65.169297 65.169297 0 0 0-4.549951 13.669852c-1.499984 6.999924-2.419974 14.179847-3.119967 20.299781a60.369349 60.369349 0 0 0 1.689982 22.109762l0.93999 3.64996 0.94999 3.649961c2.069978 7.999914 5.239943 15.589832 8.859904 23.919742 2.929968 6.759927 6.589929 13.309856 10.109891 19.649788l1.86998 3.389963c5.089945 9.189901 9.999892 18.5498 14.089848 26.489714 4.209955 8.139912 8.669906 16.329824 12.99986 24.249739l4.649949 8.589907c4.819948 8.889904 9.449898 18.439801 14.189847 29.189685 1.81998 4.519951 3.519962 9.159901 5.179944 13.649853 2.999968 7.999914 5.999935 16.359823 9.819894 24.229738l3.419963 7.129923c4.349953 8.999903 8.849905 18.349802 12.99986 27.639702q0.92999 2.389974 1.82998 4.769949c1.339986 3.519962 2.709971 7.149923 4.309954 10.639885a31.559659 31.559659 0 0 0 6.49993 9.079902 32.559649 32.559649 0 0 0 6.699927 4.999946c4.889947 2.75997 8.469909 3.159966 13.889851 3.759959a22.999752 22.999752 0 0 0 2.529972 0.139999 53.74942 53.74942 0 0 0 9.449898-1.149988l1.479984-0.269997a56.999385 56.999385 0 0 0 12.669864-4.359953l1.749981-0.759992a80.689129 80.689129 0 0 0 12.889861-7.259921c4.909947-3.279965 9.409898-6.359931 13.759851-9.419899 10.859883-7.639918 20.42978-14.83984 29.249685-21.999762l0.489994-0.399996c7.529919-6.129934 15.329835-12.469865 22.399759-19.319791 1.299986-1.259986 2.619972-2.499973 3.939957-3.73996 2.659971-2.519973 5.429941-5.119945 7.999914-7.809916l12.829861-13.499854c2.859969-2.999968 5.689939-6.059935 8.519908-9.109902 3.529962-3.809959 7.189922-7.749916 10.859883-11.549875 15.859829-16.469822 29.999676-31.419661 43.089535-47.639486 6.809927-8.469909 13.759852-17.58981 22.559757-29.579681l1.619982-2.209976a124.998651 124.998651 0 0 0 9.149901-13.539854c5.709938-10.299889 7.269922-21.999763 8.479909-34.079632a71.849225 71.849225 0 0 0 0.099999-15.689831v-0.199998a68.999255 68.999255 0 0 0-2.419974-12.799862 54.339414 54.339414 0 0 0-4.869947-10.909882c-4.719949-7.999914-13.069859-13.609853-26.289717-17.519811-7.38992-2.179976-14.929839-3.259965-23.309748-4.329953a38.619583 38.619583 0 0 0-4.999946-0.309997 76.789171 76.789171 0 0 0-16.109826 2.149977c-3.759959 0.809991-7.709917 1.80998-11.739874 2.999968a95.398971 95.398971 0 0 0-12.589864 4.999946c-1.409985 0.639993-2.81997 1.269986-4.219954 1.86998l-1.429985 0.609993c-1.86998 0.799991-3.73996 1.599983-5.57994 2.469973a348.246242 348.246242 0 0 0-15.889828 7.999914 246.827336 246.827336 0 0 0-25.179729 15.78983l-6.129933 4.059956c-7.939914 5.449941-16.139826 11.08988-23.589746 17.359813-3.429963 2.889969-7.099923 6.079934-11.539875 9.999892a110.728805 110.728805 0 0 0-8.689906 8.919903c-0.699992 0.769992-1.389985 1.539983-2.089978 2.299976l-1.089988 1.289986c-2.73997-7.819916-5.939936-15.689831-9.479898-23.399748-1.709982-3.71996-3.609961-7.43992-5.459941-10.999881l-1.999978-3.999957c-1.669982-3.319964-3.629961-6.599929-5.529941-9.769895l-1.999978-3.409963-1.309986-2.279975a111.828793 111.828793 0 0 0-6.999924-11.10988l-0.829991-1.119988c-6.589929-8.859904-13.409855-17.999806-22.109762-24.99973a116.838739 116.838739 0 0 0-15.999827-11.15988 82.559109 82.559109 0 0 0-11.089881-4.759949 52.089438 52.089438 0 0 0-8.999902-2.599972 80.239134 80.239134 0 0 0-14.499844-1.189987z" fill="#F1638C" p-id="6326"></path></svg>